<svg width="100%" height="auto" viewBox="0 0 1887 513" fill="none" xmlns="http://www.w3.org/2000/svg">
<path d="M1326.19 414.857C1304.74 423.295 1281.83 427.513 1257.45 427.513C1233.56 427.513 1210.89 423.295 1189.45 414.857C1167.99 406.42 1148.73 394.004 1131.67 377.591C1114.61 361.187 1101.57 342.553 1092.55 321.691C1083.53 300.837 1079.02 278.919 1079.02 255.945C1079.02 232.984 1083.53 211.187 1092.55 190.552C1101.57 169.932 1114.61 151.419 1131.67 135.004C1148.73 118.601 1167.99 106.065 1189.45 97.3853C1210.89 88.7173 1233.56 84.3786 1257.45 84.3786C1281.83 84.3786 1304.74 88.7173 1326.19 97.3853C1330.53 99.14 1334.75 101.095 1338.9 103.163C1353.34 77.9573 1370.91 55.1827 1391.59 34.836C1381.9 29.3827 1371.83 24.4133 1361.3 20.04C1329.12 6.67999 1294.5 -1.0179e-05 1257.45 -1.0179e-05C1220.89 -1.0179e-05 1186.4 6.67999 1153.98 20.04C1121.55 33.4 1093.28 51.6813 1069.15 74.8853C1045.02 98.0893 1026.01 125.28 1012.11 156.451C998.218 187.631 991.272 220.788 991.272 255.945C991.272 291.103 998.218 324.272 1012.11 355.441C1026.01 386.621 1045.02 413.803 1069.15 437.005C1093.28 460.211 1121.55 478.492 1153.98 491.852C1186.4 505.212 1220.89 511.891 1257.45 511.891C1294.5 511.891 1329.12 505.212 1361.3 491.852C1371.83 487.479 1381.9 482.509 1391.6 477.056C1371.01 456.812 1353.52 434.165 1339.12 409.107C1334.9 411.177 1330.6 413.123 1326.19 414.857Z" fill="#F07167"/>
<path d="M859.645 512.623H947.397V1.46251H859.645V512.623Z" fill="#F07167"/>
<path d="M1788.11 321.314C1779.55 342.058 1766.94 360.585 1750.29 376.896C1733.63 393.216 1714.72 405.561 1693.55 413.949C1672.38 422.338 1650.13 426.533 1626.83 426.533C1603.51 426.533 1581.39 422.338 1560.45 413.949C1539.51 405.561 1520.72 393.216 1504.08 376.896C1487.42 360.585 1474.69 342.058 1465.9 321.314C1457.09 300.581 1452.69 278.786 1452.69 255.946C1452.69 233.116 1457.09 211.442 1465.9 190.926C1474.69 170.424 1487.42 152.016 1504.08 135.696C1520.72 119.386 1539.51 106.922 1560.45 98.293C1581.39 89.673 1603.51 85.3596 1626.83 85.3596C1650.13 85.3596 1672.38 89.673 1693.55 98.293C1714.72 106.922 1733.63 119.386 1750.29 135.696C1766.94 152.016 1779.55 170.424 1788.11 190.926C1796.68 211.442 1800.96 233.116 1800.96 255.946C1800.96 278.786 1796.68 300.581 1788.11 321.314ZM1866.26 157.018C1852.7 126.028 1834.14 98.9916 1810.59 75.921C1787.04 52.849 1759.44 34.6729 1727.81 21.3876C1696.16 8.10493 1662.51 1.46361 1626.83 1.46361C1591.14 1.46361 1557.48 8.10493 1525.84 21.3876C1494.2 34.6729 1466.61 52.849 1443.06 75.921C1419.51 98.9916 1400.95 126.028 1387.39 157.018C1373.83 188.021 1367.05 220.989 1367.05 255.946C1367.05 290.901 1373.83 323.881 1387.39 354.873C1400.95 385.874 1419.51 412.9 1443.06 435.97C1466.61 459.044 1494.2 477.22 1525.84 490.504C1557.48 503.786 1591.14 510.429 1626.83 510.429C1662.51 510.429 1696.16 503.786 1727.81 490.504C1759.44 477.22 1787.04 459.044 1810.59 435.97C1834.14 412.9 1852.7 385.874 1866.26 354.873C1879.82 323.881 1886.6 290.901 1886.6 255.946C1886.6 220.989 1879.82 188.021 1866.26 157.018Z" fill="#F07167"/>
<path d="M717.046 350.28L511.56 0.000478102H449.832H416.493H0.0717773V62.4858H392.913H416.493H449.832H462.619L416.493 77.5058V102.312H87.9638V164.798H392.913H416.493H449.832H462.619L416.493 179.819V204.624H188.902V267.11H392.913H416.493H449.832H462.619L416.493 282.131V511.891H504.246V161.612L709.736 511.891H804.8V0.000478102H717.046V350.28Z" fill="#F07167"/>
<path d="M1529.37 353.908L1529.36 353.904L1529.36 353.902L1529.37 353.908Z" fill="#F07167"/>
<path d="M1576.74 177.099C1576.74 181.508 1574.99 185.375 1572.11 188.279C1569.21 191.16 1565.34 192.903 1560.93 192.909C1556.52 192.903 1552.66 191.16 1549.75 188.277C1546.87 185.373 1545.13 181.507 1545.12 177.099H1517.89C1517.88 188.941 1522.73 199.789 1530.49 207.536C1538.24 215.304 1549.09 220.151 1560.93 220.143C1572.78 220.151 1583.62 215.304 1591.37 207.535C1599.14 199.789 1603.98 188.941 1603.98 177.099H1576.74Z" fill="#F07167"/>
<path d="M1708.53 177.099C1708.52 181.507 1706.78 185.373 1703.9 188.277C1700.99 191.16 1697.13 192.903 1692.72 192.909C1688.31 192.903 1684.44 191.16 1681.54 188.277C1678.66 185.373 1676.92 181.507 1676.91 177.099H1649.67C1649.67 188.941 1654.51 199.789 1662.28 207.536C1670.03 215.304 1680.88 220.151 1692.72 220.143C1704.56 220.151 1715.41 215.304 1723.16 207.536C1730.92 199.789 1735.77 188.941 1735.76 177.099H1708.53Z" fill="#F07167"/>
<path d="M1667.68 266.708C1667.67 278.032 1663.12 288.158 1655.71 295.594C1648.28 303.008 1638.15 307.552 1626.82 307.56C1615.5 307.552 1605.37 303.008 1597.94 295.594C1590.52 288.158 1585.98 278.032 1585.97 266.708H1558.74C1558.73 285.465 1566.38 302.573 1578.68 314.852C1590.96 327.152 1608.07 334.8 1626.82 334.793C1645.58 334.8 1662.69 327.152 1674.97 314.852C1687.27 302.573 1694.92 285.466 1694.91 266.708H1667.68Z" fill="#F07167"/>
</svg>
