<?xml version="1.0" encoding="UTF-8"?>
<svg width="1887" height="513" viewBox="0 0 1887 513" fill="none" xmlns="http://www.w3.org/2000/svg">
  <path d="M1326.19 414.857C1304.74 423.295 1281.83 427.513 1257.45 427.513C1233.56 427.513 1210.89 423.295 1189.45 414.857C1167.99 406.42 1148.73 394.004 1131.67 377.591C1114.61 361.187 1101.57 342.553 1092.55 321.691C1083.53 300.837 1079.02 278.919 1079.02 255.945C1079.02 232.984 1083.53 211.187 1092.55 190.552C1101.57 169.932 1114.61 151.419 1131.67 135.004C1148.73 118.601 1167.99 106.065 1189.45 97.3853C1210.89 88.7173 1233.56 84.3786 1257.45 84.3786C1281.83 84.3786 1304.74 88.7173 1326.19 97.3853C1330.53 99.14 1334.75 101.095 1338.9 103.163C1353.34 77.9573 1370.91 55.1827 1391.59 34.836C1381.9 29.3827 1371.83 24.4133 1361.3 20.04C1329.12 6.67999 1294.5 0 1257.45 0C1220.89 0 1186.4 6.67999 1153.98 20.04C1121.55 33.4 1093.28 51.6813 1069.15 74.8853C1045.02 98.0893 1026.01 125.28 1012.11 156.451C998.218 187.631 991.272 220.788 991.272 255.945C991.272 291.103 998.218 324.272 1012.11 355.441C1026.01 386.621 1045.02 413.803 1069.15 437.005C1093.28 460.211 1121.55 478.492 1153.98 491.852C1186.4 505.212 1220.89 511.891 1257.45 511.891C1294.5 511.891 1329.12 505.212 1361.3 491.852C1371.83 487.479 1381.9 482.509 1391.6 477.056C1371.01 456.812 1353.52 434.165 1339.12 409.107C1334.9 411.177 1330.6 413.123 1326.19 414.857Z" fill="currentColor"/>
  <path d="M859.645 512.623H947.397V1.46251H859.645V512.623Z" fill="currentColor"/>
  <path d="M1788.11 321.314C1779.55 342.058 1766.34 359.204 1748.47 372.752C1730.58 386.3 1710.41 393.07 1687.94 393.07C1665.45 393.07 1645.28 386.3 1627.42 372.752C1609.53 359.204 1596.33 342.058 1587.75 321.314C1579.16 300.57 1574.37 278.703 1574.37 255.945C1574.37 233.172 1579.16 211.304 1587.75 190.561C1596.33 169.817 1609.53 152.671 1627.42 139.123C1645.28 125.575 1665.45 118.805 1687.94 118.805C1710.41 118.805 1730.58 125.575 1748.47 139.123C1766.34 152.671 1779.55 169.817 1788.11 190.561C1796.7 211.304 1801.49 233.172 1801.49 255.945C1801.49 278.703 1796.7 300.57 1788.11 321.314ZM1886.6 255.946C1886.6 220.989 1879.65 187.702 1865.76 156.075C1851.86 124.448 1832.85 97.352 1808.72 74.7947C1784.59 52.2373 1756.32 34.1613 1723.89 20.5587C1691.46 6.95602 1656.97 0.149658 1620.41 0.149658C1583.35 0.149658 1548.73 6.82933 1516.55 20.476C1484.38 34.1227 1456.12 52.1987 1431.79 74.7947C1407.66 97.352 1388.64 124.448 1374.74 156.075C1360.85 187.702 1353.9 220.989 1353.9 255.946C1353.9 290.903 1360.85 324.198 1374.74 355.824C1388.64 387.451 1407.66 414.538 1431.79 437.096C1456.12 459.692 1484.38 477.768 1516.55 491.415C1548.73 505.062 1583.35 511.885 1620.41 511.885C1656.97 511.885 1691.46 505.078 1723.89 491.476C1756.32 477.873 1784.59 459.797 1808.72 437.239C1832.85 414.681 1851.86 387.585 1865.76 355.959C1879.65 324.332 1886.6 291.037 1886.6 255.946Z" fill="currentColor"/>
  <path d="M717.046 350.28L511.56 0.000478102H423.808V512.623H511.56V162.219L717.046 512.623H804.8V0.000478102H717.046V350.28Z" fill="currentColor"/>
  <path d="M1529.37 353.908L1529.36 353.904L1529.36 353.902L1529.37 353.908Z" fill="currentColor"/>
  <path d="M1576.74 177.099C1576.74 181.508 1577.14 185.855 1577.91 190.134H1603.98C1603.21 185.855 1602.82 181.508 1602.82 177.099C1602.82 172.691 1603.21 168.352 1603.98 164.082H1577.91C1577.14 168.352 1576.74 172.691 1576.74 177.099Z" fill="currentColor"/>
  <path d="M1708.53 177.099C1708.52 181.507 1708.92 185.855 1709.69 190.134H1735.76C1734.99 185.855 1734.6 181.507 1734.6 177.099C1734.6 172.691 1734.99 168.352 1735.76 164.082H1709.69C1708.92 168.352 1708.52 172.691 1708.53 177.099Z" fill="currentColor"/>
  <path d="M1667.68 266.708C1667.67 278.032 1668.07 289.365 1668.88 300.709H1694.91C1694.11 289.365 1693.71 278.032 1693.7 266.708C1693.71 255.384 1694.11 244.06 1694.91 232.736H1668.88C1668.07 244.06 1667.67 255.384 1667.68 266.708Z" fill="currentColor"/>
</svg> 